{"title":"The League of E.G.2003.SWESUB.DVDRip.XviD.AC3(5.1).-Zen_Bud","uid":5554802,"size":1472306896,"categoryP":"video","categoryS":"movies","magnet":"?xt=urn:btih:e1f8291ac1c6609ef3ea1bb53502b36f634c701a&amp;dn=The+League+of+E.G.2003.SWESUB.DVDRip.XviD.AC3%285.1%29.-Zen_Bud&amp;tr=udp%3A%2F%2Ftracker.openbittorrent.com%3A80&amp;tr=udp%3A%2F%2Fopen.demonii.com%3A1337&amp;tr=udp%3A%2F%2Ftracker.coppersurfer.tk%3A6969&amp;tr=udp%3A%2F%2Fexodus.desync.com%3A6969","seeders":1,"leechers":0,"uploader":"Zen_Bud","files":-1,"time":1273655699,"description":"The League of Extraordinary Gentlemen.2003.SWESUB.DVDRip.XviD.AC3.(5.1).-Zen_Bud\n\n\n\nGeneral\nComplete name                    : The League of Extraordinary Gentlemen.avi\nFormat                           : AVI\nFile size                        : 1.37 GiB\nDuration                         : 1h 50mn\nOverall bit rate                 : 1 783 Kbps\n\nVideo\nID                               : 0\nFormat                           : MPEG-4 Visual\nCodec ID/Hint                    : XviD\nDuration                         : 1h 50mn\nBit rate                         : 1 324 Kbps\nWidth                            : 720 pixels\nHeight                           : 436 pixels\nDisplay aspect ratio             : 2.35:1\nResolution                       : 8 bits\nColorimetry                      : 4:2:0\nScan type                        : Progressive\nBits/(Pixel*Frame)               : 0.169\nStream size                      : 1.02 GiB (74%)\nWriting library                  : XviD 1.1.2 (UTC 2006-11-01)\n\nAudio\nID                               : 1\nFormat                           : AC-3\nDuration                         : 1h 50mn\nBit rate                         : 448 Kbps\nChannel(s)                       : 6 channels\nChannel positions                : Front: L C R, Side: L R, LFE\nSampling rate                    : 48.0 KHz\nStream size                      : 353 MiB (25%)\n\n\n","torrent":{"xt":"urn:btih:e1f8291ac1c6609ef3ea1bb53502b36f634c701a","amp;dn":"The+League+of+E.G.2003.SWESUB.DVDRip.XviD.AC3%285.1%29.-Zen_Bud","amp;tr":["udp%3A%2F%2Ftracker.openbittorrent.com%3A80","udp%3A%2F%2Fopen.demonii.com%3A1337","udp%3A%2F%2Ftracker.coppersurfer.tk%3A6969","udp%3A%2F%2Fexodus.desync.com%3A6969"],"infoHash":"e1f8291ac1c6609ef3ea1bb53502b36f634c701a","infoHashBuffer":{"type":"Buffer","data":[225,248,41,26,193,198,96,158,243,234,27,181,53,2,179,111,99,76,112,26]},"announce":[],"urlList":[]}}